<svg width="253" height="158" viewBox="0 0 253 158" xmlns="http://www.w3.org/2000/svg"><g fill="none"><path d="M191.6 0h-21.4c-4 0-7.2 3.2-7.2 7.2s3.2 7.2 7.2 7.2h21.4c4 0 7.2-3.2 7.2-7.2.1-4-3.2-7.2-7.2-7.2zm-17.4 27h-36.3c-3.5 0-6.3-2.8-6.3-6.3s2.8-6.3 6.3-6.3h9.5c3.8 0 7.2-2.9 7.4-6.7.3-4.2-3.1-7.7-7.2-7.7H38.5c-3.8 0-7.2 2.9-7.4 6.7-.3 4.2 3.1 7.7 7.2 7.7h71c3.5 0 6.3 2.8 6.3 6.3s-2.8 6.3-6.3 6.3h-37c-3.8 0-7.2 2.9-7.4 6.7-.3 4.2 3.1 7.7 7.2 7.7h102.5c4.1 0 7.5-3.5 7.2-7.7-.4-3.8-3.7-6.7-7.6-6.7zm-51.4 68.1h-3.7c-4 0-7.2 3.2-7.2 7.2s3.2 7.2 7.2 7.2h3.7c4 0 7.2-3.2 7.2-7.2s-3.2-7.2-7.2-7.2zm-25.4.1H86.7c-3.5 0-6.3-2.8-6.3-6.3s2.8-6.3 6.3-6.3h9.5c3.8 0 7.2-2.9 7.4-6.7.3-4.2-3.1-7.7-7.2-7.7H44.2c-3.8 0-7.2 2.9-7.4 6.7-.3 4.2 3.1 7.7 7.2 7.7h14c3.5 0 6.3 2.8 6.3 6.3s-2.8 6.3-6.3 6.3H21c-3.8 0-7.2 2.9-7.4 6.7-.3 4.2 3.1 7.7 7.2 7.7h76.9c4.1 0 7.5-3.5 7.2-7.7-.3-3.8-3.7-6.7-7.5-6.7zm77.5-14.5h1.3c3.5 0 6.3 2.8 6.3 6.3s-2.8 6.3-6.3 6.3h-9.5c-3.8 0-7.2 2.9-7.4 6.7-.3 4.2 3.1 7.7 7.2 7.7h75.2c3.8 0 7.2-2.9 7.4-6.7.3-4.2-3.1-7.7-7.2-7.7h-37c-3.5 0-6.3-2.8-6.3-6.3s2.8-6.3 6.3-6.3h3c3.8 0 7.2-2.9 7.4-6.7.3-4.2-3.1-7.7-7.2-7.7h-33.5c-4.1 0-7.5 3.5-7.2 7.7.4 3.8 3.7 6.7 7.5 6.7z" fill="#F2F6F8"/><g fill="#DDE8ED"><path d="M63.5 39.9c0-2 1.6-3.6 3.6-3.6.9 0 1.6-.7 1.6-1.6 0-.9-.7-1.6-1.6-1.6-2 0-3.6-1.6-3.6-3.6 0-.9-.7-1.6-1.6-1.6-.4 0-.8.2-1.1.5-.3.3-.5.7-.5 1.1 0 2-1.6 3.6-3.6 3.6-.4 0-.8.2-1.1.5-.3.3-.5.7-.5 1.1 0 .9.7 1.6 1.6 1.6 2 0 3.6 1.6 3.6 3.6 0 .9.7 1.6 1.6 1.6.9 0 1.6-.7 1.6-1.6zm-9.9-24.8c1.1 1.1 1.1 2.9 0 4s-2.9 1.1-4 0-1.1-2.9 0-4 2.9-1.1 4 0zm-3 2.9c.5.5 1.4.5 1.9 0s.5-1.4 0-1.9-1.4-.5-1.9 0-.5 1.4 0 1.9zm18.6-4.9c.1-.1.3-.2.5-.2.4 0 .7.3.7.7v4.8c0 .4-.3.7-.7.7-.4 0-.7-.3-.7-.7v-4.8c0-.2 0-.4.2-.5z"/><path d="M66.8 15.5c.1-.1.3-.2.5-.2h4.8c.4 0 .7.3.7.7 0 .4-.3.7-.7.7h-4.8c-.4 0-.7-.3-.7-.7 0-.2 0-.4.2-.5z"/></g><path d="M42 145.4v-5.7c0-1.5-1.2-2.7-2.7-2.7H25.1c-1.5 0-2.7 1.2-2.7 2.7v5.7" fill="#20CDD1"/><path fill="#319096" d="M23.059 144h18.28v2.4h-18.28z"/><path d="M42 146.4c-.6 0-1-.4-1-1v-5.7c0-.9-.8-1.7-1.7-1.7H25.1c-.9 0-1.7.8-1.7 1.7v5.7c0 .6-.4 1-1 1s-1-.4-1-1v-5.7c0-2.1 1.7-3.7 3.7-3.7h14.2c2.1 0 3.7 1.7 3.7 3.7v5.7c0 .6-.5 1-1 1z" fill="#284A5B"/><path d="M49.5 150.3c0-2.4-2-4.4-4.4-4.4H19.2c-2.4 0-4.4 2-4.4 4.4" fill="#20CDD1"/><path d="M49.5 151.3c-.6 0-1-.4-1-1 0-1.9-1.5-3.4-3.4-3.4H19.2c-1.9 0-3.4 1.5-3.4 3.4 0 .6-.4 1-1 1s-1-.4-1-1c0-3 2.4-5.4 5.4-5.4h25.9c3 0 5.4 2.4 5.4 5.4 0 .6-.4 1-1 1z" fill="#284A5B"/><path d="M32.3 137c-.6 0-1-.4-1-1v-10.9c0-.6.4-1 1-1s1 .4 1 1V136c0 .6-.5 1-1 1z" fill="#294A5B"/><g transform="translate(27 114)"><circle fill="#20CDD1" cx="5.3" cy="6.1" r="4.3"/><path d="M5.3 11.5C2.4 11.5 0 9.1 0 6.2S2.4.9 5.3.9s5.3 2.4 5.3 5.3-2.4 5.3-5.3 5.3zm0-8.7C3.5 2.8 2 4.3 2 6.1c0 1.8 1.5 3.3 3.3 3.3 1.8 0 3.3-1.5 3.3-3.3 0-1.8-1.5-3.3-3.3-3.3z" fill="#284A5B"/></g><circle fill="#294A5B" transform="rotate(-45 32.275 120.1)" cx="32.275" cy="120.1" r="1.7"/><g transform="translate(17 90)"><circle fill="#20CDD1" cx="5.3" cy="5.8" r="4.3"/><path d="M5.3 11.1C2.4 11.1 0 8.7 0 5.8S2.4.5 5.3.5s5.3 2.4 5.3 5.3-2.4 5.3-5.3 5.3zm0-8.7C3.5 2.4 2 3.9 2 5.7 2 7.5 3.5 9 5.3 9c1.8 0 3.3-1.5 3.3-3.3 0-1.8-1.5-3.3-3.3-3.3z" fill="#284A5B"/></g><circle fill="#294A5B" transform="rotate(-45 22.3 95.773)" cx="22.299" cy="95.773" r="1.7"/><path d="M32.1 116.6c-.4 0-.7-.2-.9-.5l-8-15.7c-.3-.5-.1-1.1.4-1.3.5-.3 1.1-.1 1.3.4l8 15.7c.3.5.1 1.1-.4 1.3-.1 0-.2.1-.4.1zM26 93.7c-.3 0-.6-.1-.8-.4-.3-.5-.2-1.1.2-1.4l17-11.9c.5-.3 1.1-.2 1.4.2.3.5.2 1.1-.2 1.4l-17 11.9c-.2.2-.4.2-.6.2z" fill="#294A5B"/><path d="M47.5 62.5c-1.8-1.8-4.7-1.8-6.5 0-1.8 1.8-1.8 4.7 0 6.5" fill="#319096"/><path d="M41 70c-.3 0-.5-.1-.7-.3-2.2-2.2-2.2-5.7 0-7.9s5.7-2.2 7.9 0c.4.4.4 1 0 1.4-.4.4-1 .4-1.4 0-1.4-1.4-3.7-1.4-5.1 0-1.4 1.4-1.4 3.7 0 5.1.4.4.4 1 0 1.4-.2.2-.4.3-.7.3z" fill="#294A5B"/><path d="M61.6 65.7c-4.7-4.7-12.2-4.7-16.9 0-4.7 4.7-4.7 12.2 0 16.9l11 11 17-17-11.1-10.9z" fill="#20CDD1"/><path d="M55.7 94.6c-.3 0-.5-.1-.7-.3l-11-11c-5-5-5-13.2 0-18.3 2.4-2.4 5.7-3.8 9.1-3.8 3.4 0 6.7 1.3 9.1 3.8l11.1 10.9c.2.2.3.4.3.7 0 .3-.1.5-.3.7l-17 17c-.1.2-.3.3-.6.3zm-2.5-31.4c-2.9 0-5.7 1.1-7.7 3.2s-3.2 4.8-3.2 7.7c0 2.9 1.1 5.7 3.2 7.7l10.3 10.3 15.5-15.5L61 66.4c-2.2-2-4.9-3.2-7.8-3.2z" fill="#284A5B"/><ellipse transform="rotate(-45 128.546 -16.824)" cx="11.013" cy="10.86" rx="12" ry="3" fill="#319096"/><path d="M57.2 95.6c-.6 0-1.1-.2-1.5-.6-2.2-2.2 3-8.6 6.4-12 3.4-3.4 9.8-8.6 12-6.4 1 1 .7 2.7-.8 5.2-1.2 2.1-3.2 4.5-5.5 6.8S63 92.9 61 94.1c-1.6 1.1-2.8 1.5-3.8 1.5zm0-2c.9.2 4.6-1.8 9.2-6.4 4.6-4.6 6.5-8.2 6.4-9.2-.9-.1-4.6 1.8-9.2 6.4-4.6 4.6-6.5 8.3-6.4 9.2z" fill="#294A5B"/><path d="M191.8 21.5c-10.4 0-18.8 8.4-18.8 18.8 0 3.7 1.1 7.1 2.9 10-.7 1.3-2.3 3.3-5.8 4.7-.1 0-.1.1 0 .2 1 .5 5.3 2.2 9.9-.2 3.2 2.6 7.3 4.1 11.7 4.1 10.4 0 18.8-8.4 18.8-18.8.1-10.3-8.3-18.8-18.7-18.8z" fill="#FFF"/><path d="M191.8 60.1c-4.3 0-8.4-1.4-11.8-3.9-4.9 2.2-9.4.3-10.2-.1-.4-.2-.6-.6-.6-1s.3-.8.7-1c2.8-1.1 4.3-2.6 5-3.7-1.8-3-2.7-6.5-2.7-10 0-10.9 8.9-19.8 19.8-19.8s19.8 8.9 19.8 19.8-9.1 19.7-20 19.7zm-11.6-6.3l.5.4c3.2 2.5 7 3.9 11.1 3.9 9.8 0 17.8-8 17.8-17.8s-8-17.8-17.8-17.8-17.8 8-17.8 17.8c0 3.4.9 6.6 2.7 9.5l.3.5-.3.5c-.7 1.2-1.9 2.8-4.2 4.1 1.7.4 4.3.5 7-.8l.7-.3z" fill="#294A5B"/><path d="M191.8 36.1c.8-.5 2.1-2 4.6-2 2.7 0 6.2 3.2 4.4 7.2-2 4.6-8.9 8.5-8.9 8.5h-.2s-6.9-3.8-8.9-8.5c-1.8-4 1.7-7.2 4.4-7.2 2.5 0 3.8 1.5 4.6 2" fill="#FF5959"/><path d="M192.2 50.8h-.7l-.2-.1c-.3-.2-7.2-4.1-9.4-8.9-.9-2-.7-4 .4-5.7 1.1-1.7 3.1-2.9 4.9-2.9 2.3 0 3.8 1 4.6 1.7.9-.7 2.3-1.7 4.6-1.7 1.8 0 3.8 1.2 4.9 2.9 1.1 1.7 1.2 3.7.4 5.7-2.1 4.9-9.1 8.8-9.4 8.9l-.1.1zm-5-15.7c-1.2 0-2.6.8-3.3 2-.5.8-1 2.1-.2 3.8 1.6 3.6 6.7 6.9 8.1 7.8 1.5-.9 6.5-4.1 8.1-7.8.8-1.7.3-3-.2-3.8-.7-1.1-2.1-2-3.3-2-1.7 0-2.7.8-3.5 1.4-.2.2-.4.3-.5.4l-.3.2h-.3V36v1h-.3l-.3-.2c-.2-.1-.3-.2-.5-.4-.8-.5-1.8-1.3-3.5-1.3zM224 29.3h-8c-.6 0-1-.4-1-1s.4-1 1-1h8c.6 0 1 .4 1 1s-.5 1-1 1zm-18.2-9.6c-.6 0-1-.4-1-1v-8c0-.6.4-1 1-1s1 .4 1 1v8c0 .5-.5 1-1 1zm6.9 2.9c-.3 0-.5-.1-.7-.3-.4-.4-.4-1 0-1.4l2.5-2.5c.4-.4 1-.4 1.4 0 .4.4.4 1 0 1.4l-2.5 2.5c-.1.2-.4.3-.7.3zm6.2-6.1c-.3 0-.5-.1-.7-.3-.4-.4-.4-1 0-1.4l.8-.8c.4-.4 1-.4 1.4 0 .4.4.4 1 0 1.4l-.8.8c-.2.2-.5.3-.7.3z" fill="#284A5B"/><g><path d="M249.1 152.1c0 3.1-55 5.6-122.9 5.6S3.3 155.2 3.3 152.1" fill="#DAE1E5"/><path d="M251.6 152H1.2c-.6 0-1-.4-1-1s.4-1 1-1h250.4c.6 0 1 .4 1 1s-.4 1-1 1z" fill="#284A5B"/></g><g><path fill="#DAE1E5" d="M90.7 93.7h71.4V99H90.7z"/><path d="M171.3 139.2c3 0 5.5 2.5 5.5 5.5s-2.5 5.5-5.5 5.5" fill="#F1C2B2"/><path d="M171.3 151.2c-.6 0-1-.4-1-1s.4-1 1-1c2.5 0 4.5-2 4.5-4.5s-2-4.5-4.5-4.5c-.6 0-1-.4-1-1s.4-1 1-1c3.6 0 6.5 2.9 6.5 6.5s-2.9 6.5-6.5 6.5z" fill="#294A5B"/><path d="M173.5 151.1h-3.3 3.3z" fill="#DAE1E5"/><path d="M81.5 150.2c-3 0-5.5-2.5-5.5-5.5s2.5-5.5 5.5-5.5" fill="#F1C2B2"/><path d="M81.5 151.2c-3.6 0-6.5-2.9-6.5-6.5s2.9-6.5 6.5-6.5c.6 0 1 .4 1 1s-.4 1-1 1c-2.5 0-4.5 2-4.5 4.5s2 4.5 4.5 4.5c.6 0 1 .4 1 1s-.4 1-1 1z" fill="#294A5B"/><path d="M117.6 78.1h18.2V87h-18.2z" fill="#F1C2B2"/><path d="M136.8 88h-20.2V77.1h20.2V88zm-18.2-2h16.2v-6.9h-16.2V86z" fill="#294A5B"/><path d="M89.6 124V90.4c0-2.3 1.8-4.1 4.1-4.1H159c2.3 0 4.1 1.8 4.1 4.1V124" fill="#FFF"/><path d="M163.1 125c-.6 0-1-.4-1-1V90.4c0-1.7-1.4-3.1-3.1-3.1H93.7c-1.7 0-3.1 1.4-3.1 3.1V124c0 .6-.4 1-1 1s-1-.4-1-1V90.4c0-2.8 2.3-5.1 5.1-5.1H159c2.8 0 5.1 2.3 5.1 5.1V124c0 .6-.5 1-1 1z" fill="#294A5B"/><g fill="#294A5B"><path d="M146 105.4c-.6 0-1-.4-1-1v-3.3c0-.6.4-1 1-1s1 .4 1 1v3.3c0 .6-.5 1-1 1z"/><path d="M150.5 105.9H144c-.6 0-1-.4-1-1s.4-1 1-1h6.5c.6 0 1 .4 1 1s-.5 1-1 1z"/></g><g transform="translate(97 85)"><circle fill="#DAE1E5" cx="5.7" cy="13.9" r="5.6"/><g transform="translate(0 7)"><circle fill="#3FD5AE" cx="5.8" cy="5.7" r="4.6"/><path d="M5.8 11.3C2.7 11.3.2 8.8.2 5.7.2 2.6 2.7.1 5.8.1c3.1 0 5.6 2.5 5.6 5.6 0 3.1-2.5 5.6-5.6 5.6zm0-9.2c-2 0-3.6 1.6-3.6 3.6s1.6 3.6 3.6 3.6 3.6-1.6 3.6-3.6-1.6-3.6-3.6-3.6z" fill="#284A5B"/></g><circle fill="#294A5B" cx="5.8" cy="12.7" r="1.6"/><path d="M5.8 9.1c-.6 0-1-.4-1-1V1.6c0-.6.4-1 1-1s1 .4 1 1v6.5c0 .5-.5 1-1 1z" fill="#294A5B"/></g><path fill="#E9F0F4" d="M138.9 124.5V86.9h-25.1v37.6"/><path d="M138.9 125.5c-.6 0-1-.4-1-1V88h-23.1v36.5c0 .6-.4 1-1 1s-1-.4-1-1V86h27.1v38.5c0 .5-.5 1-1 1z" fill="#294A5B"/><path d="M114.9 88.6l4.1 6.2c.6.9 1.8 1 2.5.2l2.2-2.4c.6-.7.5-1.7-.1-2.3l-5.1-4.7c-.6-.5-1.4-.6-2.1-.1l-1.2.9c-.6.6-.7 1.5-.3 2.2zm22.8 0l-4.1 6.2c-.6.9-1.8 1-2.5.2l-2.2-2.4c-.6-.7-.5-1.7.1-2.3l5.1-4.7c.6-.5 1.4-.6 2.1-.1l1.2.9c.6.6.8 1.5.3 2.2z" fill="#DAE1E5"/><path d="M121.7 86.7h9.1v7.4h-9.1z" fill="#20CDD1"/><path d="M130.8 95.2h-9.1c-.6 0-1-.4-1-1v-7.4c0-.6.4-1 1-1h9.1c.6 0 1 .4 1 1v7.4c0 .5-.4 1-1 1zm-8.1-2h7.1v-5.4h-7.1v5.4z" fill="#284A5B"/><path fill="#E9F0F4" d="M114.1 84.2l6 9.2 4.7-5.1-7.3-6.7z"/><path d="M120.1 94.4c-.4 0-.7-.2-.8-.5l-6-9.2c-.3-.4-.2-1 .2-1.3l3.4-2.6c.4-.3.9-.3 1.3.1l7.3 6.7c.4.4.4 1 .1 1.4l-4.7 5.1c-.2.2-.5.3-.8.3zm-4.7-9.9l4.8 7.3 3.1-3.4-5.9-5.4-2 1.5z" fill="#294A5B"/><path fill="#E9F0F4" d="M138.5 84.2l-6 9.2-4.6-5.1 7.2-6.7z"/><path d="M132.5 94.4c-.3 0-.5-.1-.7-.3l-4.7-5.1c-.4-.4-.3-1 .1-1.4l7.3-6.7c.4-.3.9-.4 1.3-.1l3.4 2.6c.4.3.5.9.2 1.3l-6 9.2c-.2.3-.5.5-.9.5zm-3.2-6.1l3.1 3.4 4.8-7.3-2-1.6-5.9 5.5z" fill="#294A5B"/><path d="M131.7 125.1l-1.2-30.6h-8.3l-1.3 30.6" fill="#20CDD1"/><path d="M131.7 126.1c-.5 0-1-.4-1-1l-1.2-29.7h-6.4l-1.2 29.7c0 .6-.5 1-1 1-.6 0-1-.5-1-1l1.2-30.7c0-.5.5-1 1-1h8.3c.5 0 1 .4 1 1l1.2 30.7c.2.6-.3 1-.9 1z" fill="#284A5B"/><path fill="#20CDD1" d="M122.4 94.1h8V97h-8z"/><path d="M152.3 126.2c-.9 0-1.6-.7-1.6-1.6v-13.8c0-.9.7-1.6 1.6-1.6.9 0 1.6.7 1.6 1.6v13.8c0 .9-.7 1.6-1.6 1.6zm-51.9 0c-.9 0-1.6-.7-1.6-1.6v-13.8c0-.9.7-1.6 1.6-1.6.9 0 1.6.7 1.6 1.6v13.8c0 .9-.8 1.6-1.6 1.6z" fill="#DAE1E5"/><g fill="#294A5B"><path d="M99.3 125.3c-.6 0-1-.4-1-1v-14.4c0-.6.4-1 1-1s1 .4 1 1v14.4c0 .5-.5 1-1 1zm54.1.3c-.6 0-1-.4-1-1v-14.4c0-.6.4-1 1-1s1 .4 1 1v14.4c0 .6-.4 1-1 1z"/></g><g><path d="M126.7 80.3h-.5c-13.9 0-25.1-11.3-25.1-25.1V19.3h50.8v35.9c0 13.8-11.3 25.1-25.2 25.1z" fill="#F1C2B2"/><path d="M126.7 81.3h-.5c-14.4 0-26.1-11.7-26.1-26.1V18.3h52.8v36.9c0 14.4-11.7 26.1-26.2 26.1zm-24.6-61.1v34.9c0 13.3 10.8 24.1 24.1 24.1h.5c13.3 0 24.1-10.8 24.1-24.1V20.2h-48.7z" fill="#294A5B"/><path d="M116 62.6c0 5.9 4.8 10.6 10.6 10.6 5.9 0 10.6-4.8 10.6-10.6H116z" fill="#FFA0AB"/><path d="M126.6 74.2c-6.4 0-11.6-5.2-11.6-11.6 0-.6.4-1 1-1h21.2c.6 0 1 .4 1 1 0 6.4-5.2 11.6-11.6 11.6zM117 63.6c.5 4.8 4.6 8.6 9.6 8.6s9.1-3.8 9.6-8.6H117zm28.7-14.1c-.6 0-1-.4-1-1 0-1.7-1.4-3-3-3-1.7 0-3 1.4-3 3 0 .6-.4 1-1 1s-1-.4-1-1c0-2.8 2.3-5 5-5 2.8 0 5 2.3 5 5 0 .6-.4 1-1 1zm-29.8 0c-.6 0-1-.4-1-1 0-1.7-1.4-3-3-3s-3 1.4-3 3c0 .6-.4 1-1 1s-1-.4-1-1c0-2.8 2.3-5 5-5s5 2.3 5 5c0 .6-.4 1-1 1zm13.4 5.1h-4c-.6 0-1-.4-1-1s.4-1 1-1h4c.6 0 1 .4 1 1s-.5 1-1 1z" fill="#294A5B"/><g fill="#294A5B"><path d="M99.7 14s-3.1 2.9-4 9.2c-.9 6.3 0 22.4 0 22.4l5.6 4.5v-6.5c0-3.8 3.1-6.8 6.8-6.9l6.1-.1c11 0 20.5-5.9 25.7-14.8 5.1 0 11.8 5.6 11.8 10.7V50l6.7-4.9V23.6s.2-8.1-8.3-8.3c-.4-6.2-5.2-10.9-16.8-10.9l-30.2-.5s-4.9-.5-7.2-2.5C93.5-.6 91.4 12 99.7 14z"/><path d="M101.3 51.2c-.2 0-.4-.1-.6-.2l-5.6-4.5c-.2-.2-.4-.4-.4-.7 0-.7-.9-16.3 0-22.6.6-4.3 2.2-7.1 3.3-8.6-2.8-1.2-4.6-3.8-5.1-7.4-.4-2.6.1-5.9 1.7-6.8.6-.3 1.4-.3 2 .2 2.1 1.8 6.7 2.3 6.7 2.3l30.1.5c10.4 0 16.8 4 17.7 10.9 4.3.4 6.3 2.7 7.3 4.7 1.1 2.3 1.1 4.5 1.1 4.6v21.5c0 .3-.2.6-.4.8l-6.7 4.9c-.3.2-.7.3-1 .1-.3-.2-.5-.5-.5-.9V32.5c0-4.5-5.8-9.3-10.2-9.6-5.6 9.1-15.6 14.8-26.3 14.8l-6.1.1c-3.3.1-5.8 2.7-5.8 5.9v6.5c0 .4-.2.7-.6.9-.3.1-.4.1-.6.1zm-4.6-6l3.6 2.9v-4.4c0-4.3 3.5-7.8 7.8-7.9l6.1-.1c10.2 0 19.7-5.5 24.9-14.3.1-.1.1-.2.2-.3.2-.2.5-.3.7-.3 5.5 0 12.8 5.8 12.8 11.7v15.6l4.7-3.4v-21c0-.3 0-7.2-7.3-7.3-.5 0-.9-.4-1-.9-.4-6.4-6-9.9-15.8-9.9l-30.2-.5c-.3 0-5.1-.6-7.7-2.6-.4.6-.9 2.8-.5 5.2.3 1.7 1.4 4.8 5 5.6.4.1.6.4.7.7.1.4 0 .7-.3 1 0 0-2.8 2.8-3.7 8.6-.8 5.4-.2 19 0 21.6z"/></g><path d="M152.9 42.1c3.4 0 6.2 2.8 6.2 6.2 0 3.4-2.8 6.2-6.2 6.2" fill="#F1C2B2"/><path d="M152.9 55.5c-.6 0-1-.4-1-1s.4-1 1-1c2.9 0 5.2-2.3 5.2-5.2 0-2.9-2.3-5.2-5.2-5.2-.6 0-1-.4-1-1s.4-1 1-1c4 0 7.2 3.2 7.2 7.2s-3.2 7.2-7.2 7.2z" fill="#294A5B"/><g><path d="M100 54.5c-3.4 0-6.2-2.8-6.2-6.2 0-3.4 2.8-6.2 6.2-6.2" fill="#F1C2B2"/><path d="M100 55.5c-4 0-7.2-3.2-7.2-7.2s3.2-7.2 7.2-7.2c.6 0 1 .4 1 1s-.4 1-1 1c-2.9 0-5.2 2.3-5.2 5.2 0 2.9 2.3 5.2 5.2 5.2.6 0 1 .4 1 1s-.5 1-1 1z" fill="#294A5B"/></g></g><g fill="#DAE1E5"><path d="M158.4 99.2c-.5 0-.9-.4-.9-.9 0-3.5-2.9-6.4-6.4-6.4-3.5 0-6.4 2.9-6.4 6.4 0 .5-.4.9-.9.9s-.9-.4-.9-.9c0-4.6 3.7-8.3 8.3-8.3 4.6 0 8.3 3.7 8.3 8.3-.1.5-.5.9-1.1.9z"/><path d="M151.1 91.7c-.5 0-.9-.4-.9-.9v-3.3c0-.5.4-.9.9-.9s.9.4.9.9v3.3c0 .5-.4.9-.9.9z"/><g transform="translate(156 96)"><circle cx="2.6" cy="2.4" r="1.4"/><path d="M2.6 4.7C1.3 4.7.3 3.7.3 2.4.3 1.1 1.3.1 2.6.1c1.3 0 2.3 1 2.3 2.3 0 1.3-1 2.3-2.3 2.3zm0-2.8c-.2 0-.4.2-.4.4s.2.4.4.4.4-.2.4-.4-.2-.4-.4-.4z"/></g><g transform="translate(141 96)"><circle cx="2.6" cy="2.4" r="1.4"/><path d="M2.6 4.7C1.3 4.7.3 3.7.3 2.4.3 1.1 1.3.1 2.6.1c1.3 0 2.3 1 2.3 2.3 0 1.3-1 2.3-2.3 2.3zm0-2.8c-.2 0-.4.2-.4.4s.2.4.4.4.4-.2.4-.4-.2-.4-.4-.4z"/></g></g><g fill="#294A5B"><path d="M158.4 98.2c-.6 0-1-.4-1-1 0-3.5-2.9-6.4-6.4-6.4-3.5 0-6.4 2.9-6.4 6.4 0 .6-.4 1-1 1s-1-.4-1-1c0-4.6 3.7-8.4 8.4-8.4s8.4 3.7 8.4 8.4c0 .6-.4 1-1 1z"/><path d="M151.1 90.7c-.6 0-1-.4-1-1v-3.3c0-.6.4-1 1-1s1 .4 1 1v3.3c0 .5-.5 1-1 1z"/><g transform="translate(156 94)"><circle cx="2.6" cy="3.3" r="1.4"/><path d="M2.6 5.7C1.3 5.7.2 4.6.2 3.3.2 2 1.3.9 2.6.9 3.9.9 5 2 5 3.3c0 1.3-1.1 2.4-2.4 2.4zm0-2.8c-.2 0-.4.2-.4.4s.2.4.4.4.4-.2.4-.4-.2-.4-.4-.4z"/></g><g transform="translate(141 94)"><circle cx="2.6" cy="3.3" r="1.4"/><path d="M2.6 5.7C1.3 5.7.2 4.6.2 3.3.2 2 1.3.9 2.6.9 3.9.9 5 2 5 3.3c0 1.3-1.1 2.4-2.4 2.4zm0-2.8c-.2 0-.4.2-.4.4s.2.4.4.4.4-.2.4-.4-.2-.4-.4-.4z"/></g></g><g><path d="M170.7 150.4H82v-49.5c0-2.2 1.8-4 4-4h80.7c2.2 0 4 1.8 4 4v49.5z" fill="#FFF"/><path d="M171.7 151.4H81v-50.5c0-2.8 2.2-5 5-5h80.7c2.8 0 5 2.2 5 5v50.5zm-88.7-2h86.7v-48.5c0-1.7-1.3-3-3-3H86c-1.7 0-3 1.3-3 3v48.5z" fill="#294A5B"/></g><g fill="#294A5B"><path d="M116.6 126.5h3v3h-3zm7.8-2.1l-3.4-5h3.9l1.5 2.5 1.5-2.5h3.8l-3.3 5 3.4 5.2H128l-1.6-2.6-1.6 2.6H121z"/></g></g><g><path d="M215.8 150.9h-13c-1.7 0-3-1.3-3-3v-13c0-1.7 1.3-3 3-3h13c1.7 0 3 1.3 3 3v13c0 1.7-1.3 3-3 3z" fill="#BCCACF"/><path d="M215.8 151.9h-13c-2.2 0-4-1.8-4-4v-13c0-2.2 1.8-4 4-4h13c2.2 0 4 1.8 4 4v13c0 2.2-1.8 4-4 4zm-13-19c-1.1 0-2 .9-2 2v13c0 1.1.9 2 2 2h13c1.1 0 2-.9 2-2v-13c0-1.1-.9-2-2-2h-13z" fill="#294A5B"/><path d="M209.3 132c-.6 0-1-.4-1-1v-7.4c0-.6.4-1 1-1s1 .4 1 1v7.4c0 .5-.5 1-1 1z" fill="#294A5B"/><path d="M199.1 112.3h1.9c3 0 5.4 2.4 5.4 5.4v2.6h-1.7c-3.1 0-5.6-2.5-5.6-5.6v-2.4z" fill="#3FD5AE"/><path d="M207.4 121.3h-2.7c-1.8 0-3.4-.7-4.7-2-1.3-1.3-1.9-2.9-1.9-4.7v-3.3h2.9c3.5 0 6.4 2.9 6.4 6.4v3.6zm-7.3-8v1.3c0 1.2.5 2.4 1.3 3.3.9.9 2 1.4 3.3 1.4h.7v-1.6c0-2.4-2-4.4-4.4-4.4h-.9z" fill="#294A5B"/><path d="M217.4 115l.2 1.5c.2 2.4-1.5 4.1-3.9 3.9l-2.1-.2-.1-1.4c-.3-2.5 1.6-4.3 4.1-4l1.8.2z" fill="#3FD5AE"/><path d="M214.1 121.4h-.5l-2.9-.3-.2-2.2c-.2-1.5.3-2.9 1.3-3.9s2.4-1.4 3.9-1.3l2.7.3.2 2.3c.1 1.5-.3 2.8-1.2 3.7-.9.9-2.1 1.4-3.3 1.4zm-1.6-2.2l1.3.1c.8.1 1.6-.2 2.1-.7.5-.5.8-1.3.7-2.1l-.1-.7-1.1-.1c-.9-.1-1.7.2-2.3.7-.5.5-.8 1.3-.7 2.2l.1.6z" fill="#294A5B"/><g><path d="M209.7 104.1l1.2 1c1.9 1.5 1.9 4 0 5.5l-1.6 1.3-1.1-.9c-1.9-1.6-1.9-4.2 0-5.7l1.5-1.2z" fill="#3FD5AE"/><path d="M209.3 113.1l-1.7-1.4c-1.2-1-1.8-2.3-1.8-3.6 0-1.4.7-2.7 1.8-3.6l2.1-1.7 1.8 1.5c1.1.9 1.8 2.2 1.8 3.5 0 1.3-.6 2.6-1.8 3.5l-2.2 1.8zm.4-7.7l-.8.7c-.7.6-1.1 1.3-1.1 2.1s.4 1.5 1.1 2.1l.4.4 1-.8c.7-.5 1-1.2 1-2 0-.7-.4-1.4-1-2l-.6-.5z" fill="#294A5B"/></g></g></g></svg>
