<svg id="Layer_1" data-name="Layer 1" xmlns="http://www.w3.org/2000/svg" viewBox="0 0 152.21 32.23"><defs><style>.cls-1{fill:#0176fe}</style></defs><path class="cls-1" d="M933.1 461.39h-5.35l-.45-.45V448c0-2.23-.89-4-3.56-4-3.12 0-4.9 1.78-4.9 5.79v11.14l-.45.45h-5.35l-.45-.45v-21.37l.45-.45H918l.45.45.45 1.34h.45a7.85 7.85 0 0 1 5.79-2.23c5.35 0 8.46 3.56 8.46 8.91v13.36zM944.24 435.56h-5.35l-.45-.45v-4.45l.45-.45h5.35l.45.45v4.45zm0 25.84h-5.35l-.45-.45v-21.39l.45-.45h5.35l.45.45v21.38zM983.44 461.39h-5.35l-.45-.45V448c0-2.23-.89-4-3.56-4s-4 1.78-4 4.9v12l-.45.45h-5.35l-.45-.45V448c0-2.23-.89-4-3.56-4s-4 1.78-4 4.9v12l-.45.45h-5.35l-.45-.45v-21.34l.45-.45h4.9l.45.45.45 1.34h.45s1.34-2.23 5.35-2.23a7 7 0 0 1 6.24 3.12h.45s1.78-3.12 6.68-3.12c5.35 0 8.46 3.12 8.46 8.91v13.36zM1001.26 461.84a7.49 7.49 0 0 1-5.79-2.23H995l-.45 1.34-.45.45h-4.9l-.45-.45v-30.29l.45-.45h5.35l.45.45v10.24h.45a7.49 7.49 0 0 1 5.79-2.23c5.35 0 9.8 4.45 9.8 11.58s-4.44 11.59-9.78 11.59zM999.92 444c-3.56 0-4.9 2.67-4.9 6.24s1.34 6.24 4.9 6.24 4.9-2.67 4.9-6.24-1.34-6.24-4.9-6.24zM1024.87 461.84c-6.68 0-11.14-4.45-11.14-11.58s4.45-11.58 11.14-11.58 11.14 4.45 11.14 11.58-4.46 11.58-11.14 11.58zm0-17.82c-3.12 0-4.9 2.23-4.9 6.24s1.78 6.24 4.9 6.24 4.9-2.23 4.9-6.24-1.77-6.26-4.9-6.26z" transform="translate(-883.79 -430.21)"/><circle cx="888.22" cy="458.01" r="4.43" transform="rotate(-40.16 -142.075 1451.76)" fill="#8ec6ff"/><path class="cls-1" d="M898.86 449.89l-.62-.74a6.62 6.62 0 0 1-1.58-4.13 5.13 5.13 0 0 0-1.58-3.6 5.2 5.2 0 0 0-7.6 7.09 5.17 5.17 0 0 0 3 1.76 6.5 6.5 0 0 1 3.75 2.24l.62.74a8.4 8.4 0 0 1 1.58 4.13A6.47 6.47 0 0 0 898 461a5.2 5.2 0 0 0 7.6-7.09 5.07 5.07 0 0 0-3-1.76 7.09 7.09 0 0 1-3.74-2.26z" transform="translate(-883.79 -430.21)"/></svg>